<svg width="95" height="16" viewBox="0 0 95 16" fill="none" xmlns="http://www.w3.org/2000/svg">
<path d="M3.02 8.5H7.44C8.96 8.5 9.84 9.3 9.84 10.7C9.84 12.14 8.96 12.96 7.44 12.96H3.02V8.5ZM0.52 15H7.08C10.78 15 12.34 13.26 12.34 11.02C12.34 9.08 11.4 7.72 9.66 7.34V7.3C10.96 6.74 11.7 5.7 11.7 4.26C11.7 1.88 10.02 0.719999 7.46 0.719999H0.52V15ZM3.02 2.76H7.1C8.46 2.76 9.2 3.28 9.2 4.72C9.2 6 8.3 6.7 7.1 6.7H3.02V2.76ZM20.662 11.52C20.662 12.96 19.102 13.48 18.102 13.48C17.302 13.48 16.002 13.18 16.002 12.16C16.002 10.96 16.882 10.6 17.862 10.44C18.862 10.26 19.962 10.28 20.662 9.82V11.52ZM22.942 7.38C22.942 5.2 20.822 4.38 18.802 4.38C16.522 4.38 14.262 5.16 14.102 7.82H16.382C16.482 6.7 17.382 6.18 18.662 6.18C19.582 6.18 20.802 6.4 20.802 7.58C20.802 8.92 19.342 8.74 17.702 9.04C15.782 9.26 13.722 9.68 13.722 12.26C13.722 14.28 15.402 15.28 17.262 15.28C18.482 15.28 19.942 14.9 20.842 14.02C21.022 14.96 21.682 15.28 22.602 15.28C22.982 15.28 23.702 15.14 24.042 15.02V13.44C23.802 13.48 23.622 13.48 23.482 13.48C23.062 13.48 22.942 13.26 22.942 12.7V7.38ZM25.3953 15H27.6753V8.9C27.6753 7.38 28.6553 6.18 30.1753 6.18C31.5153 6.18 32.1553 6.88 32.1953 8.5V15H34.4753V7.9C34.4753 5.58 33.0553 4.38 30.8153 4.38C29.4553 4.38 28.2753 5.08 27.5953 6.22L27.5553 6.18V4.66H25.3953V15ZM36.9397 15H39.2197V11.3L40.5797 9.98L43.7397 15H46.5197L42.1797 8.46L46.1397 4.66H43.3397L39.2197 8.84V0.719999H36.9397V15ZM47.8819 15H50.3819V8.56H56.8819V15H59.3819V0.719999H56.8819V6.4H50.3819V0.719999H47.8819V15ZM66.7955 13.48C64.7555 13.48 63.8555 11.62 63.8555 9.82C63.8555 8.04 64.7555 6.18 66.7955 6.18C68.8355 6.18 69.7355 8.04 69.7355 9.82C69.7355 11.62 68.8355 13.48 66.7955 13.48ZM66.7955 15.28C70.1155 15.28 72.0155 13 72.0155 9.82C72.0155 6.66 70.1155 4.38 66.7955 4.38C63.4755 4.38 61.5755 6.66 61.5755 9.82C61.5755 13 63.4755 15.28 66.7955 15.28ZM72.8709 6.36H74.5909V12.46C74.6309 14.18 75.0709 15.1 77.4509 15.1C77.9509 15.1 78.4309 15.02 78.9309 14.98V13.22C78.6109 13.3 78.2909 13.3 77.9709 13.3C76.9509 13.3 76.8709 12.82 76.8709 11.88V6.36H78.9309V4.66H76.8709V1.56H74.5909V4.66H72.8709V6.36ZM89.9511 10.42C90.3311 7.32 88.3311 4.38 85.0711 4.38C81.9911 4.38 80.0711 6.9 80.0711 9.84C80.0711 13.02 81.8911 15.28 85.1311 15.28C87.3911 15.28 89.3111 14.02 89.8111 11.76H87.6511C87.2511 12.9 86.4511 13.48 85.1311 13.48C83.2311 13.48 82.3511 12.04 82.3511 10.42H89.9511ZM82.3511 8.92C82.4111 7.38 83.4911 6.18 85.0711 6.18C86.6111 6.18 87.5911 7.48 87.6711 8.92H82.3511ZM91.7444 15H94.0244V0.719999H91.7444V15Z" fill="#FFFCF6"/>
</svg>
