<svg version="1.1" xmlns="http://www.w3.org/2000/svg" xmlns:xlink="http://www.w3.org/1999/xlink" width="24" height="14" viewBox="0,0,256,149.32813"><g fill="#fffdfd" fill-rule="evenodd" stroke="none" stroke-width="1" stroke-linecap="butt" stroke-linejoin="miter" stroke-miterlimit="10" stroke-dasharray="" stroke-dashoffset="0" font-family="none" font-weight="none" font-size="none" text-anchor="none" style="mix-blend-mode: normal"><g transform="translate(0.00115,-0.00339) scale(10.66667,10.66667)"><path d="M21.3624,9.75765c0,0 1.9404,1.91645 2.4204,2.80325c0.0094,0.0127 0.0166,0.0269 0.0216,0.042c0.1956,0.3276 0.2436,0.5844 0.1476,0.774c-0.162,0.3132 -0.7104,0.4704 -0.8964,0.4836h-3.4296c-0.2388,0 -0.7356,-0.0624 -1.3404,-0.48c-0.462,-0.3228 -0.9216,-0.8544 -1.3668,-1.374c-0.6648,-0.7716 -1.2396,-1.4412 -1.8216,-1.4412c-0.0735,-0.0002 -0.1465,0.012 -0.216,0.036c-0.4404,0.1392 -0.9996,0.7668 -0.9996,2.4384c0,0.5232 -0.4128,0.8208 -0.702,0.8208h-1.5708c-0.5352,0 -3.32158,-0.1872 -5.79238,-2.7924c-3.0276,-3.18965 -5.7468,-9.58805 -5.7732,-9.64445c-0.1692,-0.414 0.186,-0.6396 0.57,-0.6396h3.4632c0.4644,0 0.6156,0.2808 0.7212,0.5328c0.1224,0.2892 0.576,1.446 1.32,2.7456c1.2048,2.1144 1.9452,2.9748 2.5368,2.9748c0.11115,0.00033 0.22042,-0.02865 0.3168,-0.084c0.7728,-0.4248 0.6288,-3.1848 0.5928,-3.7536c0,-0.1104 -0.0012,-1.2324 -0.3972,-1.7748c-0.2832,-0.3888 -0.7656,-0.54 -1.0572,-0.5952c0.078,-0.1128 0.2436,-0.2856 0.456,-0.3876c0.5292,-0.264 1.48558,-0.3024 2.43478,-0.3024h0.5268c1.0296,0.0144 1.296,0.0804 1.6704,0.1752c0.7536,0.18 0.768,0.6684 0.702,2.3316c-0.0192,0.4752 -0.0396,1.0104 -0.0396,1.6404c0,0.1344 -0.006,0.2844 -0.006,0.4368c-0.0228,0.8532 -0.0528,1.8144 0.5496,2.2092c0.0782,0.04867 0.1684,0.07445 0.2604,0.0744c0.2088,0 0.834,0 2.5296,-2.91c0.744,-1.2852 1.32,-2.8008 1.3596,-2.9148c0.0336,-0.0636 0.1344,-0.2424 0.2568,-0.3144c0.0871,-0.04633 0.1846,-0.06947 0.2832,-0.0672h4.074c0.444,0 0.7452,0.0672 0.804,0.2352c0.0984,0.2724 -0.0192,1.104 -1.8792,3.6192c-0.3132,0.4188 -0.588,0.7812 -0.8292,1.098c-1.686,2.2128 -1.686,2.3244 0.0996,4.0044z"></path></g></g></svg>